<svg xmlns="http://www.w3.org/2000/svg" viewBox="0 0 512 512">
  <defs>
    <linearGradient id="bg" x1="74" y1="30" x2="438" y2="482" gradientUnits="userSpaceOnUse">
      <stop offset="0" stop-color="#34d399"/>
      <stop offset="0.48" stop-color="#10b981"/>
      <stop offset="1" stop-color="#064e3b"/>
    </linearGradient>
    <radialGradient id="glow" cx="50%" cy="42%" r="60%">
      <stop offset="0" stop-color="#d1fae5" stop-opacity="0.45"/>
      <stop offset="0.58" stop-color="#34d399" stop-opacity="0.1"/>
      <stop offset="1" stop-color="#064e3b" stop-opacity="0"/>
    </radialGradient>
    <filter id="softShadow" x="-20%" y="-20%" width="140%" height="150%">
      <feDropShadow dx="0" dy="12" stdDeviation="10" flood-color="#022c22" flood-opacity="0.45"/>
    </filter>
    <filter id="textShadow" x="-15%" y="-15%" width="130%" height="140%">
      <feDropShadow dx="0" dy="10" stdDeviation="6" flood-color="#022c22" flood-opacity="0.55"/>
    </filter>
  </defs>

  <rect width="512" height="512" rx="112" fill="url(#bg)"/>
  <rect width="512" height="512" rx="112" fill="url(#glow)"/>

  <g font-family="Arial, Helvetica, sans-serif" font-weight="900" text-anchor="middle" fill="#ecfdf5" opacity="0.13">
    <text x="92" y="104" font-size="54" transform="rotate(-16 92 104)">66</text>
    <text x="414" y="92" font-size="58" transform="rotate(14 414 92)">76</text>
    <text x="118" y="410" font-size="60" transform="rotate(12 118 410)">77</text>
    <text x="424" y="392" font-size="54" transform="rotate(-18 424 392)">66</text>
    <text x="72" y="262" font-size="48" transform="rotate(-10 72 262)">76</text>
    <text x="454" y="250" font-size="48" transform="rotate(9 454 250)">77</text>
  </g>

  <g filter="url(#textShadow)">
    <text x="252" y="324" font-family="Arial, Helvetica, sans-serif" font-size="230" font-weight="900" text-anchor="middle" fill="#f0fdf4">67</text>
    <text x="252" y="324" font-family="Arial, Helvetica, sans-serif" font-size="230" font-weight="900" text-anchor="middle" fill="none" stroke="#064e3b" stroke-width="8" stroke-opacity="0.65">67</text>
  </g>

  <g filter="url(#softShadow)">
    <line x1="358" y1="354" x2="436" y2="432" stroke="#0f3d3a" stroke-width="38" stroke-linecap="round"/>
    <line x1="358" y1="354" x2="436" y2="432" stroke="#d1fae5" stroke-width="24" stroke-linecap="round"/>
    <circle cx="264" cy="248" r="132" fill="#ecfdf5" fill-opacity="0.08" stroke="#d1fae5" stroke-width="22"/>
    <circle cx="264" cy="248" r="108" fill="none" stroke="#064e3b" stroke-width="8" stroke-opacity="0.45"/>
    <path d="M184 170c26-25 67-38 105-27" fill="none" stroke="#ffffff" stroke-width="14" stroke-linecap="round" opacity="0.55"/>
  </g>
</svg>
