<svg xmlns="http://www.w3.org/2000/svg" viewBox="0 0 512 512">
  <defs>
    <linearGradient id="bg" x1="42" y1="26" x2="470" y2="486" gradientUnits="userSpaceOnUse">
      <stop offset="0" stop-color="#111827"/>
      <stop offset="0.48" stop-color="#0f172a"/>
      <stop offset="1" stop-color="#312e81"/>
    </linearGradient>
    <linearGradient id="boardFill" x1="88" y1="80" x2="424" y2="432" gradientUnits="userSpaceOnUse">
      <stop offset="0" stop-color="#f8fafc"/>
      <stop offset="1" stop-color="#cbd5e1"/>
    </linearGradient>
    <linearGradient id="badge" x1="326" y1="334" x2="452" y2="458" gradientUnits="userSpaceOnUse">
      <stop offset="0" stop-color="#0f172a"/>
      <stop offset="1" stop-color="#020617"/>
    </linearGradient>
    <radialGradient id="tapGlow" cx="50%" cy="50%" r="50%">
      <stop offset="0" stop-color="#ffffff" stop-opacity="0.92"/>
      <stop offset="0.45" stop-color="#fde68a" stop-opacity="0.55"/>
      <stop offset="1" stop-color="#f97316" stop-opacity="0"/>
    </radialGradient>
    <filter id="shadow" x="-18%" y="-16%" width="136%" height="142%">
      <feDropShadow dx="0" dy="18" stdDeviation="16" flood-color="#020617" flood-opacity="0.42"/>
    </filter>
    <filter id="badgeShadow" x="-30%" y="-30%" width="160%" height="170%">
      <feDropShadow dx="0" dy="10" stdDeviation="8" flood-color="#020617" flood-opacity="0.5"/>
    </filter>
    <clipPath id="boardClip">
      <rect x="86" y="78" width="340" height="340" rx="48"/>
    </clipPath>
  </defs>

  <rect width="512" height="512" rx="112" fill="url(#bg)"/>
  <path d="M56 412C122 312 214 274 306 226c76-40 118-86 150-166v452H56z" fill="#0ea5e9" opacity="0.13"/>
  <path d="M0 84c90 18 157 50 218 118 70 78 141 98 294 58v252H0z" fill="#f97316" opacity="0.11"/>

  <g filter="url(#shadow)" transform="rotate(-8 256 256)">
    <rect x="86" y="78" width="340" height="340" rx="48" fill="url(#boardFill)"/>
    <g clip-path="url(#boardClip)">
      <rect x="86" y="78" width="340" height="340" fill="#e2e8f0"/>
      <path d="M86 78h76v84H86z" fill="#22c55e"/>
      <path d="M162 78h78v62h-78z" fill="#38bdf8"/>
      <path d="M240 78h88v78h-88z" fill="#a78bfa"/>
      <path d="M328 78h98v92h-98z" fill="#fb7185"/>

      <path d="M86 162h54v86H86z" fill="#fbbf24"/>
      <path d="M140 140h100v108H140z" fill="#06b6d4"/>
      <path d="M240 156h72v92h-72z" fill="#84cc16"/>
      <path d="M312 170h114v78H312z" fill="#f97316"/>

      <path d="M86 248h92v72H86z" fill="#60a5fa"/>
      <path d="M178 248h70v92h-70z" fill="#e879f9"/>
      <path d="M248 248h94v70h-94z" fill="#facc15"/>
      <path d="M342 248h84v102h-84z" fill="#14b8a6"/>

      <path d="M86 320h72v98H86z" fill="#ef4444"/>
      <path d="M158 340h88v78h-88z" fill="#10b981"/>
      <path d="M246 318h86v100h-86z" fill="#818cf8"/>
      <path d="M332 350h94v68h-94z" fill="#fb923c"/>

      <path d="M86 78h340v340H86z" fill="none" stroke="#ffffff" stroke-width="14" stroke-linejoin="round" opacity="0.78"/>
      <path d="M160 78v340M240 78v340M326 78v340M86 160h340M86 248h340M86 326h340" fill="none" stroke="#ffffff" stroke-width="12" stroke-linecap="round" opacity="0.74"/>

      <path d="M248 248h94v70h-94z" fill="#fde047"/>
      <path d="M248 248h94v70h-94z" fill="none" stroke="#f8fafc" stroke-width="14" opacity="0.9"/>
      <circle cx="296" cy="284" r="64" fill="url(#tapGlow)"/>
      <circle cx="296" cy="284" r="24" fill="#ffffff"/>
      <circle cx="296" cy="284" r="11" fill="#0f172a"/>
    </g>
    <rect x="86" y="78" width="340" height="340" rx="48" fill="none" stroke="#f8fafc" stroke-width="14"/>
  </g>

  <g filter="url(#badgeShadow)">
    <rect x="292" y="326" width="178" height="132" rx="38" fill="url(#badge)"/>
    <rect x="303" y="337" width="156" height="110" rx="30" fill="none" stroke="#ffffff" stroke-width="8" opacity="0.84"/>
    <text x="381" y="421" font-family="Arial, Helvetica, sans-serif" font-size="84" font-weight="900" text-anchor="middle" fill="#ffffff">67</text>
    <circle cx="314" cy="356" r="13" fill="#22c55e"/>
    <circle cx="450" cy="430" r="11" fill="#f97316"/>
  </g>
</svg>
